<svg version="1.1" id="Layer_1" xmlns="http://www.w3.org/2000/svg" xmlns:xlink="http://www.w3.org/1999/xlink" x="0px" y="0px" width="133px" height="152.5px" viewBox="0 0 133 152.5" enable-background="new 0 0 133 152.5" xml:space="preserve">
	<g>
		<g>
			<g>
				<path fill="#D2D3D4" d="M21.324,83.777h18.893c0.762,0,1.323-0.08,1.688-0.24c0.365-0.16,0.545-0.562,0.545-1.205v-0.854V71.407
					c0-1.757-0.229-3.097-0.689-4.023c-0.461-0.927-0.958-1.535-1.487-1.824c-0.531-0.289-1.121-0.541-1.773-0.756
					c-0.654-0.212-0.981-0.448-0.981-0.706c0-0.354,0.262-0.53,0.787-0.53c0.868,0,2.014,0.055,3.438,0.167
					c1.425,0.114,2.519,0.17,3.278,0.17c0.632-0.021,1.587-0.082,2.868-0.184c1.28-0.101,2.316-0.153,3.108-0.153
					c0.462,0,0.724,0.176,0.788,0.53c0,0.397-0.262,0.637-0.788,0.722c-1.026,0.194-1.805,0.479-2.328,0.86
					c-0.525,0.38-0.881,0.932-1.069,1.655c-0.187,0.722-0.282,1.797-0.282,3.222v29.93c0,1.973,0.328,3.463,0.981,4.475
					c0.654,1.012,1.885,1.631,3.696,1.855c0.653,0.105,1,0.326,1.044,0.66c0,0.203-0.096,0.385-0.289,0.545
					c-0.194,0.16-0.402,0.24-0.627,0.24c-0.536,0-1.318-0.043-2.346-0.135c-1.028-0.092-1.869-0.137-2.522-0.137
					c-3.728,0-6.512,0.068-8.354,0.207c-0.664,0-0.996-0.197-0.996-0.594c0.064-0.396,0.427-0.648,1.091-0.756
					c0.665-0.105,1.174-0.234,1.526-0.383c0.354-0.152,0.736-0.709,1.149-1.672c0.414-0.965,0.673-2.527,0.779-4.693V88.324
					c0-0.975-0.12-1.557-0.361-1.75c-0.24-0.193-0.865-0.289-1.872-0.289H21.324c-1.114,0-1.854,0.115-2.217,0.344
					c-0.366,0.23-0.548,0.861-0.548,1.889v10.459c0,2.453,0.301,4.305,0.901,5.559c0.599,1.252,1.963,1.967,4.096,2.137
					c0.74,0.105,1.158,0.375,1.253,0.805c0,0.182-0.082,0.348-0.241,0.496c-0.16,0.15-0.342,0.225-0.546,0.225
					c-0.579,0-1.449-0.045-2.612-0.135c-1.162-0.094-2.154-0.137-2.978-0.137c-0.955,0-2.41,0.031-4.371,0.096
					s-3.422,0.096-4.386,0.096c-0.557,0-0.862-0.17-0.917-0.514c0-0.375,0.286-0.664,0.854-0.867
					c1.241-0.258,2.143-0.605,2.707-1.045c0.563-0.438,0.921-1.049,1.077-1.832c0.155-0.781,0.231-1.99,0.231-3.629v-2.299V71.873
					v-1.382c0-1.681-0.265-2.91-0.794-3.687c-0.53-0.777-1.026-1.232-1.487-1.365c-0.461-0.135-1.151-0.286-2.072-0.45
					c-0.921-0.167-1.381-0.42-1.381-0.763c0-0.439,0.245-0.659,0.737-0.659c0.964,0,2.257,0.055,3.88,0.167
					c1.622,0.114,2.852,0.17,3.687,0.17c0.643,0,1.595-0.057,2.86-0.17c1.264-0.111,2.28-0.167,3.053-0.167
					c0.62,0,0.931,0.219,0.931,0.659c0,0.375-0.29,0.62-0.868,0.738c-2.452,0.697-3.679,2.185-3.679,4.466
					c0,0.226,0.011,0.493,0.033,0.803c0.021,0.312,0.03,0.503,0.03,0.579v10.396c0,0.844,0.058,1.439,0.17,1.781
					c0.114,0.344,0.348,0.561,0.707,0.65C19.795,83.732,20.422,83.777,21.324,83.777z"/>
				<path fill="#D2D3D4" d="M87.755,104.352c2.701,2.254,5.085,4.277,7.432,5.596c2.509,1.408,7.112,2.959,9.701,2.764
					c2.229-0.17,4.442-0.881,5.579-1.215c0.511,0,0.764,0.125,0.764,0.377c0,0.438-0.89,1.195-1.828,1.654
					c-1.44,0.689-4.486,1.467-7.513,1.439c-1.608-0.014-7.101-0.83-8.587-1.4c-1.486-0.568-2.835-1.26-4.045-2.068
					c-1.214-0.809-2.7-1.891-4.463-3.248c-4.686,4.113-9.554,6.166-14.602,6.166c-2.33,0-4.572-0.357-6.73-1.07
					c-2.161-0.717-4.092-1.76-5.795-3.139c-1.698-1.377-3.042-3.057-4.022-5.039c-0.981-1.984-1.469-4.178-1.469-6.59
					c0-3.152,0.901-5.85,2.698-8.094c1.802-2.244,4.239-3.756,7.305-4.539c-1.839-2.42-2.759-4.879-2.759-7.371
					c0-1.609,0.476-3.022,1.432-4.24c0.955-1.222,2.186-2.158,3.686-2.805c1.513-0.647,3.033-0.97,4.566-0.97
					c1.052,0,1.956,0.096,2.713,0.289c0.757,0.194,1.613,0.461,2.567,0.8c0.963,0.335,1.596,0.508,1.896,0.508
					c0.146,0,0.329-0.097,0.548-0.286c0.218-0.184,0.391-0.279,0.53-0.279c0.605,0,0.909,0.577,0.909,1.723
					c0,0.604,0.049,1.519,0.155,2.74c0.104,1.221,0.157,2.121,0.157,2.707c0,0.553-0.193,0.854-0.58,0.906
					c-0.127,0-0.658-0.693-1.596-2.08c-0.938-1.392-2.065-2.608-3.372-3.656c-1.311-1.048-2.899-1.575-4.766-1.575
					c-1.319,0-2.524,0.429-3.617,1.278c-1.097,0.85-1.644,1.917-1.644,3.201c0,0.918,0.195,1.83,0.588,2.742
					c0.391,0.904,0.9,1.777,1.533,2.619c0.634,0.842,1.445,1.773,2.443,2.801c0.992,1.027,1.606,1.664,1.836,1.904l7.891,8.152
					c2.243,2.297,5.152,4.967,8.721,8.016c1.072-1.867,1.61-3.812,1.61-5.838c0-1.848-0.278-3.244-0.831-4.182
					c-0.554-0.939-1.101-1.521-1.644-1.752c-0.545-0.23-1.261-0.457-2.152-0.682c-0.891-0.227-1.337-0.496-1.337-0.818v-0.064
					c0.075-0.305,0.265-0.455,0.58-0.455c0.354,0,0.896,0.031,1.625,0.094c0.73,0.062,1.274,0.094,1.626,0.094
					c0.816,0,2.028-0.031,3.634-0.094c1.607-0.062,2.811-0.094,3.613-0.094c0.367,0,0.58,0.172,0.646,0.52
					c0,0.33-0.279,0.607-0.829,0.826c-0.815,0.293-1.358,1.092-1.625,2.393c-0.264,1.309-0.607,3.08-1.03,5.316
					C89.483,100.572,88.766,102.578,87.755,104.352z M82.807,106.779c-6.867-5.887-12.7-11.637-17.498-17.248
					c-0.598-0.709-1.127-1.283-1.596-1.717c-0.471-0.434-0.984-0.648-1.536-0.648c-1.326,0-2.475,0.469-3.445,1.4
					c-0.968,0.934-1.706,2.09-2.216,3.467c-0.502,1.377-0.754,2.703-0.754,3.979c0,2.658,0.797,5.111,2.394,7.348
					c1.598,2.236,3.661,3.998,6.191,5.283c2.527,1.283,5.093,1.922,7.693,1.922c1.949,0,3.884-0.322,5.799-0.973
					C79.753,108.939,81.41,108,82.807,106.779z"/>
				<g>
					<path fill="#D2D3D4" d="M124.448,63.568h-1.045c-1.563,0.267-3.583,0.4-6.057,0.4c-0.547,0-1.328-0.009-2.345-0.032
						c-1.02-0.02-1.773-0.031-2.266-0.031h-5.334c-5.13,0-8.97-0.112-11.52-0.337c-0.964,0-1.445,0.245-1.445,0.738
						c0,0.3,0.101,0.479,0.306,0.537c0.202,0.061,0.622,0.113,1.262,0.154c0.637,0.043,1.204,0.167,1.701,0.371
						c0.498,0.202,0.945,0.573,1.342,1.108c0.837,1.157,1.253,3.085,1.253,5.784v0.593V99.25c0,2.141-0.207,3.74-0.618,4.795
						c-0.412,1.055-0.85,1.729-1.31,2.018c-0.461,0.287-1.001,0.531-1.622,0.73c-0.623,0.197-0.934,0.469-0.934,0.811
						c0.056,0.301,0.344,0.449,0.869,0.449c0.942,0,2.366-0.043,4.274-0.127c1.906-0.088,3.329-0.129,4.273-0.129
						c0.577,0,1.435,0.041,2.569,0.129c1.135,0.084,1.986,0.127,2.555,0.127c0.234,0,0.45-0.062,0.642-0.191
						c0.193-0.129,0.29-0.307,0.29-0.531c0-0.439-0.374-0.658-1.125-0.658c-3.289-0.055-4.931-2.336-4.931-6.844V89.24v-1.123
						c0-0.793,0.151-1.275,0.458-1.447c0.305-0.172,1.158-0.258,2.561-0.258h4.419c2.176,0,3.932,0.152,5.269,0.451
						c0.72,0.215,1.209,0.578,1.471,1.092c0.263,0.514,0.565,1.264,0.908,2.242s0.663,1.469,0.964,1.469
						c0.353,0,0.53-0.24,0.53-0.723c0-0.762-0.012-1.895-0.031-3.404c-0.023-1.512-0.032-2.658-0.032-3.439
						c0-0.461,0.02-1.141,0.063-2.041c0.043-0.898,0.063-1.578,0.063-2.039c0-0.611-0.22-0.916-0.658-0.916
						c-0.342,0-0.515,0.24-0.515,0.723c-0.257,1.648-1.076,2.752-2.458,3.309c-1.381,0.557-3.132,0.838-5.253,0.838
						c-0.406,0-0.975-0.014-1.703-0.033c-0.728-0.023-1.232-0.033-1.511-0.033c-0.288,0-0.686,0.021-1.188,0.066
						c-0.503,0.041-0.855,0.062-1.061,0.062c-0.749,0-1.319-0.174-1.711-0.521c-0.391-0.35-0.585-1.025-0.585-2.035V68.771v-0.464
						c0-0.719,0.133-1.265,0.4-1.638c0.516-0.569,1.479-0.853,2.892-0.853c2.432,0,5.874,0.219,10.329,0.659
						c1.146,0.118,1.994,0.324,2.54,0.618c0.547,0.296,0.939,0.756,1.181,1.383c0.241,0.627,0.403,1.561,0.49,2.803
						c0,0.48,0.22,0.724,0.659,0.724c0.374-0.054,0.665-1.086,0.875-3.093c0.208-2.009,0.334-3.237,0.378-3.688
						c0.086-0.536,0.128-0.932,0.128-1.188C125.106,63.723,124.887,63.568,124.448,63.568z"/>
				</g>
				<path fill="#D2D3D4" d="M88.947,63.851c0-0.192-0.098-0.314-0.277-0.378c-0.091-0.032-0.196-0.054-0.333-0.054h-0.971
					c-0.893,0.153-1.965,0.251-3.177,0.312c-0.76,0.036-1.562,0.06-2.446,0.06c-0.507,0-1.233-0.009-2.178-0.031
					c-0.946-0.018-1.647-0.028-2.105-0.028h-3.762h-1.19h-3.764c-0.456,0-1.157,0.01-2.104,0.028
					c-0.943,0.022-1.669,0.031-2.177,0.031c-0.886,0-1.688-0.024-2.448-0.06c-1.212-0.061-2.283-0.159-3.177-0.312H57.87
					c-0.137,0-0.242,0.022-0.333,0.054c-0.181,0.064-0.279,0.187-0.279,0.378c0,0.238,0,2.065,0,2.302
					c0,0.193,0.099,0.315,0.28,0.378c0.091,0.032,0.196,0.055,0.333,0.055h0.971c0.892-0.154,1.963-0.252,3.176-0.312
					c0.76-0.035,1.561-0.06,2.447-0.06c0.507,0,1.233,0.009,2.177,0.03c0.947,0.019,1.648,0.03,2.105,0.03h3.762h1.191h3.761
					c0.458,0,1.159-0.011,2.105-0.03c0.944-0.021,1.67-0.03,2.178-0.03c0.885,0,1.688,0.025,2.447,0.06
					c1.212,0.061,2.283,0.159,3.176,0.312h0.971c0.137,0,0.242-0.023,0.333-0.055c0.18-0.063,0.277-0.187,0.277-0.378
					C88.947,65.916,88.947,64.089,88.947,63.851z"/>
			</g>
			<g>
				<path fill="#D2D3D4" d="M22.784,136.713c0,3.797-2.772,6.436-6.833,6.436c-2.145,0-3.432-0.561-5.148-0.824v-3.762
					c0.826,1.385,2.97,2.441,5.216,2.441c2.441,0,3.894-1.65,3.894-3.961c0-4.885-8.417-4.852-8.417-11.389
					c0-3.859,2.74-6.072,6.536-6.072c1.717,0,2.773,0.463,4.16,0.627v3.564c-0.595-1.453-2.246-2.113-4.16-2.113
					c-2.211,0-3.796,1.322-3.796,3.666C14.234,130.078,22.784,130.176,22.784,136.713z"/>
				<path fill="#D2D3D4" d="M31.285,122.254v7.197h2.609c2.244,0,4.125-0.033,5.148-0.1v2.443c-1.023-0.066-2.904-0.1-5.148-0.1
					h-2.609v8.715h2.906c2.277,0,4.587-0.033,5.579-0.1v2.443c-0.991-0.066-3.301-0.1-5.579-0.1H28.48
					c0.067-1.816,0.132-4.422,0.132-5.908V125.92c0-2.277-0.065-4.885-0.132-5.875h5.446c2.278,0,4.556-0.066,5.579-0.135v2.479
					c-1.023-0.1-3.3-0.135-5.579-0.135H31.285z"/>
				<path fill="#D2D3D4" d="M57.449,140.674c2.376,0,4.489-0.561,5.976-1.848v3.104c-1.948,0.594-3.665,1.088-6.173,1.088
					c-6.866,0-12.082-5.248-12.082-11.686c0-6.469,5.216-11.717,12.082-11.717c2.672,0,4.225,0.627,5.941,1.023v3.168
					c-1.552-1.287-3.532-1.783-5.777-1.783c-5.281,0-9.506,4.16-9.506,9.309C47.91,136.482,52.135,140.674,57.449,140.674z"/>
				<path fill="#D2D3D4" d="M72.253,120.045c-0.066,0.891-0.132,3.564-0.132,5.906v7.625c0,4.26,2.477,7.098,5.975,7.098
					c3.499,0,5.941-2.838,5.941-7.098v-7.625c0-1.881,0-4.521-0.101-5.906h2.907c-0.068,1.451-0.101,4.092-0.101,5.906v7.561
					c0,5.875-3.597,9.506-8.647,9.506s-8.648-3.598-8.648-9.506v-7.561c0-2.342-0.066-5.016-0.132-5.906H72.253z"/>
				<path fill="#D2D3D4" d="M95.852,136.945c0,2.244,0.032,4.686,0.131,5.709h-2.938c0.1-1.023,0.132-3.465,0.132-5.709v-10.994
					c0-2.242-0.032-4.916-0.132-5.906h4.72c5.018,0,7.758,2.771,7.758,6.6c0,3.531-2.178,5.381-4.456,6.107
					c2.41,2.971,5.215,7.428,7.822,9.902h-3.662c-1.85-2.377-4.591-6.141-6.503-9.441c-0.397,0.066-0.728,0.066-1.09,0.066h-1.782
					V136.945z M95.852,131.301h2.145c2.774,0,4.786-1.85,4.786-4.59c0-2.344-1.684-4.521-5.116-4.521h-1.814V131.301z"/>
				<path fill="#D2D3D4" d="M115.22,122.254v7.197h2.609c2.245,0,4.126-0.033,5.147-0.1v2.443c-1.021-0.066-2.902-0.1-5.147-0.1
					h-2.609v8.715h2.907c2.276,0,4.587-0.033,5.577-0.1v2.443c-0.99-0.066-3.301-0.1-5.577-0.1h-5.713
					c0.068-1.816,0.134-4.422,0.134-5.908V125.92c0-2.277-0.065-4.885-0.134-5.875h5.446c2.279,0,4.557-0.066,5.579-0.135v2.479
					c-1.022-0.1-3.3-0.135-5.579-0.135H115.22z"/>
			</g>
		</g>
		<path fill="#D2D3D4" d="M87.868,50.801h-3.303l-0.006-2.584c-0.552-1.19-0.942-2.472-1.144-3.815
			c-0.102-0.682-0.154-1.379-0.154-2.089c0-0.792,0.066-1.569,0.191-2.324c0,0,1.621-7.173,1.621-11.574
			c0-4.674-2.283-8.814-5.795-11.368c-2.317-1.686-5.169-2.681-8.254-2.681h-9.073h-1.761l-3.878-5.015v5.015v6.951l0.066,13.588
			c0.024,1.513,0.071,2.828,0.162,3.123c0.236,0.773,2.096,2.171,3.703,2.271c1.607,0.101,2.379-0.872,3.071-0.924
			c0.691-0.052,1.559-0.259,1.703-1.056c0.022-0.127,0.051-0.333,0.086-0.592c0.084-0.545,0.195-1.104,0.383-1.639l0.672-1.25
			c0.67-0.749,1.844-1.22,2.371-2.224c0.35-0.664,0.486-1.377,0.541-1.862l0.344-0.001c0.502,1.445,0.776,2.997,0.776,4.612
			c0,0.715-0.055,1.418-0.157,2.105c-0.257,1.703-0.818,3.305-1.627,4.75c-1.459,2.604-3.723,4.696-6.454,5.939v0.06v2.584h-3.303
			l-1.208,7.573h1.208h24.486h0.825h0.094h0.898h2.916h1.209L87.868,50.801z"/>
	</g>
</svg>